<?xml version="1.0" encoding="utf-8"?>
<!-- Generator: Adobe Illustrator 23.0.1, SVG Export Plug-In . SVG Version: 6.00 Build 0)  -->
<svg version="1.1" xmlns="http://www.w3.org/2000/svg" xmlns:xlink="http://www.w3.org/1999/xlink" x="0px" y="0px"
	 viewBox="0 0 1350 969" style="enable-background:new 0 0 1350 969;" xml:space="preserve">
<style type="text/css">
	.st0{fill:#84CDE6;}
	.st1{fill:#9B9B9B;}
	.st2{fill:#E0E0E0;}
	.st3{fill:none;}
	.st4{fill:#A2009B;}
	.st5{fill:#D7AC8B;}
	.st6{fill:#444444;}
	.st7{fill:#3B3B3B;}
	.st8{fill:#473324;}
	.st9{fill:#4E3825;}
	.st10{fill:#D29D77;}
	.st11{fill:none;stroke:#3B3B3B;stroke-miterlimit:10;}
	.st12{fill:none;stroke:#473324;stroke-miterlimit:10;}
	.st13{fill:#5B5B5B;}
	.st14{fill:#CC7415;}
	.st15{fill:#72400E;}
	.st16{fill:#FFFFFF;}
	.st17{fill:#000517;}
	.st18{fill:#000317;}
	.st19{fill:#090073;}
	.st20{fill:#414142;}
	.st21{fill:#51345B;}
	.st22{fill:#6D437A;}
	.st23{fill:#4F3259;}
	.st24{fill:#474747;}
	.st25{fill:#E5E189;}
	.st26{fill:#3F2C03;}
	.st27{fill:#1F6634;}
	.st28{fill:none;stroke:#FFFFFF;stroke-width:7;stroke-miterlimit:10;}
	.st29{fill:none;stroke:#FFFFFF;stroke-width:7;stroke-miterlimit:10;stroke-dasharray:12.1358,12.1358;}
	.st30{fill:none;stroke:#FFFFFF;stroke-width:7;stroke-miterlimit:10;stroke-dasharray:12.232,12.232;}
	.st31{fill:#F15A24;}
	.st32{fill:#F7931E;}
	.st33{fill:#29ABE2;}
	.st34{fill:#0000FF;}
	.st35{fill:#998675;}
	.st36{fill:#ED1C24;}
	.st37{fill:#662D91;}
	.st38{fill:#888988;}
	.st39{fill:#6B6D6B;}
</style>
<g id="Layer_1">
	<rect x="-34" class="st0" width="1420" height="969"/>
</g>
<g id="Layer_2">
	<g>
		<path class="st1" d="M1005.7,655.4H699.5c-6.7,0-12.1-5.4-12.1-12.1V475.8c0-6.7,5.4-12.1,12.1-12.1h306.2
			c6.7,0,12.1,5.4,12.1,12.1v167.5C1017.8,650,1012.4,655.4,1005.7,655.4z"/>
	</g>
	<circle class="st2" cx="731.5" cy="507.5" r="18.5"/>
	<circle class="st2" cx="731.5" cy="558.5" r="18.5"/>
	<path class="st2" d="M978,521H802c-8.8,0-16-7.2-16-16v0c0-8.8,7.2-16,16-16h176c8.8,0,16,7.2,16,16v0C994,513.8,986.8,521,978,521
		z"/>
	<path class="st2" d="M978,575H802c-8.8,0-16-7.2-16-16l0,0c0-8.8,7.2-16,16-16h176c8.8,0,16,7.2,16,16l0,0
		C994,567.8,986.8,575,978,575z"/>
	<path class="st2" d="M978,634h-45c-8.8,0-16-7.2-16-16l0,0c0-8.8,7.2-16,16-16h45c8.8,0,16,7.2,16,16l0,0
		C994,626.8,986.8,634,978,634z"/>
	<path class="st3" d="M582.2,607.8c-0.1,0.1-0.2,0.3-0.3,0.5c-0.9,1.6-3,6-2.5,11.7c0.3,3.7,1.5,7.9,2.3,9.2"/>
	<g id="XMLID_1_">
		<g>
			<path class="st4" d="M745.9,570.4c0.2,0.6-0.5,1.4-0.6,1.5c-0.5,0.4-1.1,0.7-1.6,1.1c-2.5,1-2.9,0-1.1-3.1c0.4-0.2,1-0.3,1.5-0.3
				C744.6,569.6,745.7,569.6,745.9,570.4z"/>
			<path class="st5" d="M743.8,573c-3.1,2.2-6.1,4.3-9.1,6.5c0.3,0.1,0.7,0.4,1.1,0.8c0.4,0.3,1.2,1.1,1.1,1.5
				c-0.1,0.4-0.9,0.2-1.1,0.8c-0.3,0.8,0.5,2.2,0.6,2.3c0.6,1,1.1,1,1.1,1.5c0.1,0.9-1.2,1.4-1.1,2.3c0.1,0.7,1,0.8,1.1,1.5
				c0.2,0.9-0.8,2.1-1.1,2.3c-2.9,1.7-26.1,15.9-25.6,16.5c-3.9-0.7-7-2.6-8.8-6c6.1-2.6,8.2-6.1,9-9c0.9-3.4-0.1-6.2,1.7-10.7
				c0.8-1.9,1.6-3.1,1.7-5.3c1.7-0.2,2.3-1.7,1.7-4.6c1.4,0.7,2.4,2.7,2.3,4.6c-0.1,1.2-0.6,1.6-1.1,3.1c-0.6,1.7-0.7,3.5-0.6,5.3
				c13.7-8,22.4-13.4,24.3-15.3c0.1-0.1,0.8-0.8,1.9-1.2C740.9,573,741.2,574.1,743.8,573z"/>
			<path class="st4" d="M716,573.4c0.6,2.8,0,4.4-1.7,4.6c0.1-2.2-0.6-3.8,0-4.6C714.8,572.8,715.7,573.3,716,573.4z"/>
			<path class="st6" d="M606.6,662.7c-0.9-0.3-1.9-0.5-2.8-0.6c-4.9-1.7-9.1-6.5-12.5-14.3l-0.8,14.9c-3.6-1.2-8.1-2.5-13.4-3.8
				c-13.3-3.1-19.8-2.9-22.6-9.2c-1.1-2.5-1.4-5.4-1.1-8.4c2.6-8.9,6-19,10.7-29.8c5.6-12.8,9.9-20.9,15.2-29l0.2-0.1
				c2.9,11.4,3.3,17.1,7.7,20c2.6,1.7,5.7,1.4,11.9,1.5c1.7,0,4.9,0.1,8.5-0.3c3.5-0.4,7.5-1.1,10.7-2.8
				c6.6-3.4,10.4-10.5,15.4-23.5l7.7,2.9l6.2,2.3c9.2,9.9,24.8,42.8,24.8,42.8l28.8-23.7c0.2,0.5,0.4,0.9,0.6,1.3
				c1.8,3.5,4.8,5.3,8.8,6c0.6,0.1,1.2,0.2,1.9,0.3c-6.6,7.8-12.3,14.4-17.1,19.9c0,0,0,0,0,0c-30.8,29-36.5,7.6-50-10.7
				c0,0-0.6,38.2-0.4,38.7l-0.8,5.6l6.8,28.4l4.5,18.9h-3.4v0.8c-30.2-1.6-56.5-5.9-72.3-17.6c1.4-5,2.8-9.8,4.4-14.2
				c6.3-12.5,12.8-17.7,19.6-17C604.7,662.4,605.6,662.6,606.6,662.7z M589.6,647.5c-2.6-6.1-5.3-12.2-7.9-18.3
				c-2.1,4.1-4.1,8.1-6.2,12.2C580.2,643.4,584.9,645.4,589.6,647.5z"/>
			<path class="st6" d="M652.3,717.7l0.5,34.4h-16.5h-24.7h-4.7h-14.4h-8.1C598.6,715.4,616.7,707.8,652.3,717.7z"/>
			<path class="st7" d="M652.2,714.7l0,3c-35.6-9.9-53.7-2.3-68,34.4h-11.6c0.7-18.6,2.7-34.9,7.9-45.8h-4c1-4.5,2.2-8.9,3.3-13.1
				c15.8,11.8,42.1,16,72.3,17.6V714.7z"/>
			<path class="st8" d="M650,509.3c1.4,20.6-4.3,36-12.4,58c-1.4,3.7-2.6,7-3.8,10.1c-5,13-8.8,20.1-15.4,23.5
				c-3.2,1.6-7.2,2.4-10.7,2.8c31.8-40.5,37.1-84.1,8.9-131.7c2.1,0.1,4.1,0.2,6.3,0.6c9,1.5,13.7,2.2,18.1,6.9
				C648.5,487.5,649.4,501.3,650,509.3z"/>
			<path class="st6" d="M629.1,874.3c11.4,3.3,15.3,7.5,14.1,12.2h-35v-1.5l1-13.6l0.1-1.6l8.6,4.1c0.7,0.3,1.4,0.5,2.1,0.5H629.1z"
				/>
			<path class="st5" d="M611.6,752.1h24.7c-3.8,52.7-24.7,104.6-7.2,122.2H620c-0.7,0-1.4-0.2-2.1-0.5l-8.6-4.1
				C618.2,831.8,601.3,786.3,611.6,752.1z"/>
			<path class="st9" d="M616.5,472c28.2,47.5,22.9,91.2-8.9,131.7c-3.6,0.4-6.8,0.3-8.5,0.3c-6.2-0.1-9.2,0.2-11.9-1.5
				c-4.4-2.9-4.8-8.5-7.7-20c-0.8-3.1-1.8-6.6-3-10.6c-3.7-11.4-4.2-9.5-6.8-18.3c-2.2-7.6-5.4-18.9-4.5-33.6
				c0.3-4.5,1.1-15.9,6.8-27.5c2-4.1,5.5-11,11.9-15.3c1.6-1.1,4.1-2.5,15.2-3.8C606.8,472.5,611.7,471.9,616.5,472z"/>
			<path class="st10" d="M606.8,752.1h4.7c-10.3,34.2,6.6,79.7-2.3,117.6l-0.1,1.6l-4.4-2.4c1.9-8.8,2.3-16.7,1.9-24.5c0,0,0,0,0,0
				C607.6,823.1,599.2,800.9,606.8,752.1z"/>
			<polygon class="st7" points="609.2,871.3 608.2,884.9 602.5,884.9 602.5,868.1 604.8,868.9 			"/>
			<path class="st5" d="M592.4,752.1h14.4c-7.7,48.9,0.8,71-0.1,92.3C605.3,818.9,594.5,795.3,592.4,752.1z"/>
			<path class="st7" d="M603.8,662c-6.7-0.8-13.3,4.5-19.6,17c2-5.7,4-11,6.3-15.8c0.1-0.1,0.1-0.3,0.2-0.4c-0.1,0-0.1,0-0.2-0.1
				l0.8-14.9C594.7,655.6,598.9,660.3,603.8,662z"/>
		</g>
		<g>
			<path class="st11" d="M606.8,662.7c-0.1,0-0.1-0.1-0.2-0.1c-0.9-0.3-1.9-0.5-2.8-0.6c-6.7-0.8-13.3,4.5-19.6,17"/>
			<path class="st12" d="M616.5,472c28.2,47.5,22.9,91.2-8.9,131.7"/>
			<path class="st11" d="M584.2,752.1c14.3-36.7,32.4-44.3,68-34.4"/>
			<path class="st11" d="M652.2,710.9c-30.2-1.6-56.5-5.9-72.3-17.6"/>
		</g>
	</g>
	<rect x="339.5" y="233" class="st13" width="15" height="101.5"/>
	<rect x="104.5" y="233" class="st13" width="15" height="101.5"/>
	<rect x="335.5" y="334.5" width="23" height="7"/>
	<rect x="100.5" y="334.5" width="23" height="7"/>
	<rect x="92" y="220" class="st14" width="276" height="13"/>
	<rect x="71" y="203" class="st15" width="320" height="17"/>
	<rect x="973.5" y="230" class="st13" width="15" height="101.5"/>
	<rect x="615.5" y="230" class="st13" width="15" height="101.5"/>
	<rect x="969.5" y="331.5" width="23" height="7"/>
	<rect x="611.5" y="331.5" width="23" height="7"/>
	<rect x="603" y="217" class="st14" width="400" height="13"/>
	<rect x="582" y="200" class="st15" width="443" height="17"/>
	<rect x="828" y="118" width="124" height="68"/>
	<rect x="833.3" y="123" class="st16" width="113.4" height="58"/>
	<rect x="632" y="115" width="124" height="68"/>
	<rect x="637.3" y="120" class="st16" width="113.4" height="58"/>
	<rect x="162" y="117" width="124" height="68"/>
	<rect x="167.3" y="122" class="st16" width="113.4" height="58"/>
	<g>
		<path class="st5" d="M221.7,200.8c3.1,0.4,6.6,0.8,11.1,0c1.1-0.2,6.5-1.2,6.6-3c0.1-1.4-3.1-1.5-5.2-3.7
			c-5.2-5.6,2.4-19.4,0-20.7c-1.3-0.7-3.1,3.7-8.9,5.9c-0.7,0.3-7.2,2.7-13.3,0c-3.6-1.6-5.2-4.2-5.9-3.7c-0.9,0.7,3.1,4.8,3,10.3
			c-0.1,6.5-5.6,8.9-4.4,11.8C205.4,199.7,207.7,199.1,221.7,200.8z"/>
		<path class="st5" d="M186,321c1.6,5.6,3.2,13.1,3,22c-0.2,10.1-2.4,15.6,1,19c3.3,3.3,10.1,3,14,0c4.2-3.2-0.4-9.9,0-22
			c0.2-6.9,1.8-12.5,3-16"/>
		<path class="st5" d="M227,321c1.6,5.6,3.2,13.1,3,22c-0.2,10.1-2.4,15.6,1,19c3.3,3.3,10.1,3,14,0c4.2-3.2-0.4-9.9,0-22
			c0.2-6.9,1.8-12.5,3-16"/>
		<path class="st17" d="M218,180.9c-7.3-0.4-11.9-5.2-14-7.4c-8.5-8.8-7.6-20.4-7.4-22.9c0.3-2.9,0.8-7.9,4.4-12.5
			c7-8.9,18.7-8.2,19.2-8.1c1.3,0.1,9.9,0.9,15.5,8.1c5.4,6.9,4.4,14.9,3.7,20.7c-0.6,4.9-1.3,10.6-5.9,15.5
			C232.2,175.6,226.5,181.4,218,180.9z"/>
		<path class="st5" d="M277,266.5c2.9-1.1,4.3-3.5,4.4-3.7c2.9-5.1-1.6-10.3-3.7-19.9c-2.5-11.7,2.3-13.4-0.7-21.4
			c-4.1-11-16.6-17.2-18.4-15.5c-1.3,1.1,3,5.2,4.4,14.8c0.2,1.6,0.2,5.8,0,14c-0.1,6.1,0.1,12.3,0,18.4c-0.1,4.3-0.2,5.6,0.7,7.4
			C265.9,265,272.1,268.3,277,266.5z"/>
		<path class="st5" d="M189.9,202.3c-1.3-0.7-2.7,1.3-8.1,4.4c-4.6,2.6-5.5,2.6-7.4,4.4c-2.4,2.3-3.2,5-3.7,6.6
			c-1.3,4.2-0.5,7.8,0,10.3c0.3,1.3,0.6,2.3,1,3.2c1.8,3.9,3.3,6.5,4.1,7.9c3.9,6.5,2.4,14,3,14c0.6,0,0.3-7.2,2.2-17
			c1.6-8.2,3.2-12.2,3.7-13.3c1.6-3.7,2.4-4,3.7-7.4C190.4,210.6,191.9,203.4,189.9,202.3z"/>
		<path class="st18" d="M201.2,373h-9.3c-3.2,0-5.8-2.6-5.8-5.8v-0.3c0-3.2,2.6-5.8,5.8-5.8h9.3c3.2,0,5.8,2.6,5.8,5.8v0.3
			C207,370.4,204.4,373,201.2,373z"/>
		<path class="st18" d="M242.2,373h-9.3c-3.2,0-5.8-2.6-5.8-5.8v-0.3c0-3.2,2.6-5.8,5.8-5.8h9.3c3.2,0,5.8,2.6,5.8,5.8v0.3
			C248,370.4,245.4,373,242.2,373z"/>
		<path class="st18" d="M177,304.7c1.8,1.6,4.5,2.4,10,4c13.9,4,23.4,1.8,38,1c27.5-1.6,31,3.9,36-1c5.9-5.8,2-14.4,2-48.1
			c0-4.9,0.1-9.7,0-14.6c-0.1-4.4-0.1-8.6,0-15.3c0.1-7.8,0.2-8,0-10.2c-0.6-7-1-11.7-4.4-14.6c-2.9-2.4-4.6-0.9-9.6-4.4
			c-1.3-0.9-2.7-2.1-5.2-2.9c-1.7-0.6-3.2-0.7-4.4-0.7c-6.2-0.1-9,2.3-14.8,2.9c-2.5,0.3-4.6-0.1-8.9-0.7c-7.3-1.1-9.5-2.8-14.8-2.2
			c-2.3,0.3-4,0.8-5.9,1.5c-3.6,1.2-4.6,2.3-5.2,2.9c-0.6,0.7-0.9,1.4-1.2,2.2c-1.3,3.8-0.4,7-0.3,9.4c0.1,3.9-2,4.6-4.4,10.9
			c-1.5,4-2.6,6.7-3.7,14.6C176,270.5,165.6,294.7,177,304.7z"/>
		<g>
			<polygon class="st19" points="224.4,259.9 224.4,261.6 213.7,261.6 213.7,259.9 212.4,259.9 212.4,261.6 212.4,262.8 
				226.1,262.8 226.1,261.6 226.1,259.9 			"/>
			<rect x="209.9" y="258.7" class="st19" width="18.7" height="5"/>
			<path class="st19" d="M238.7,280.6h-39.4c-13.4,0-24.3-10.9-24.3-24.3v0c0-13.4,10.9-24.3,24.3-24.3h39.4
				c13.4,0,24.3,10.9,24.3,24.3v0C263,269.8,252.1,280.6,238.7,280.6z"/>
			<rect x="214.1" y="254.1" class="st19" width="10.8" height="70.1"/>
			<path class="st19" d="M260.1,308.8c-4.5,5.5-15.9,7.9-35.3,6.6v-3.3C240.7,312.4,253.5,311.6,260.1,308.8
				c4.6,2.1,2.6,11.3-12,14.6c-6.6,0.3-14.5-0.1-23.2,0.8h-10.8c-8.7-0.8-16.6-0.4-23.2-0.8c-14.6-3.3-16.6-12.5-12-14.6
				c6.7,2.7,19.4,3.5,35.3,3.3v3.3c-19.4,1.3-30.7-1.1-35.3-6.6"/>
			<path class="st19" d="M224.9,324.8c0,0.3-0.3,0.6-0.6,0.6h-9.5c-0.3,0-0.6-0.3-0.6-0.6s0.3-0.6,0.6-0.6h9.5
				C224.6,324.2,224.9,324.5,224.9,324.8z"/>
			<path class="st19" d="M222.4,326.1V368c0,0.3-0.1,0.6-0.2,0.9c-0.4,1-1.3,1.8-2.5,1.8H219c-1.1,0-2-0.7-2.3-1.7
				c-0.1-0.2-0.1-0.5-0.1-0.7v-42.1c0-0.4,0.3-0.7,0.7-0.7h4.5C222.1,325.4,222.4,325.7,222.4,326.1z"/>
			<path class="st19" d="M222.8,370v6.6c0,0.8-0.7,1.5-1.5,1.5h-3.7c-0.8,0-1.5-0.7-1.5-1.5V370c0-0.5,0.2-0.9,0.5-1.1
				c0.3,1,1.2,1.7,2.3,1.7h0.7c1.2,0,2.1-0.7,2.5-1.8C222.6,369.1,222.8,369.6,222.8,370z"/>
			<path class="st20" d="M256.2,388.4c-0.2,0.6-0.5,1.2-1,1.5c-0.5,0.3-1,0.5-1.6,0.5c-0.2,0-0.4,0-0.7-0.1l-5.2-1.3l-26.7-6.8h-3
				l-26.7,6.8l-5.2,1.3c-0.2,0.1-0.5,0.1-0.7,0.1c-0.6,0-1.1-0.2-1.6-0.5c-0.5-0.4-0.9-0.9-1-1.5c-0.6-2.3,0.8-4.6,3.1-5.2l30.2-7.7
				v1.1c0,0.8,0.7,1.5,1.5,1.5h3.7c0.8,0,1.5-0.7,1.5-1.5v-1.1l30.3,7.8C255.4,383.9,256.7,386.2,256.2,388.4z"/>
			<path d="M255.1,390v6.6c0,0.8-0.6,1.4-1.4,1.4h-4.6c-0.8,0-1.4-0.6-1.4-1.4v-7.1c0-0.1,0-0.3,0.1-0.4l5.2,1.3
				c0.2,0.1,0.5,0.1,0.7,0.1C254.1,390.5,254.7,390.3,255.1,390z"/>
			<path d="M191.4,389.5v7.1c0,0.8-0.6,1.4-1.4,1.4h-4.6c-0.8,0-1.4-0.6-1.4-1.4V390c0.5,0.3,1,0.5,1.6,0.5c0.2,0,0.4,0,0.7-0.1
				l5.2-1.3C191.4,389.2,191.4,389.3,191.4,389.5z"/>
			<circle class="st19" cx="219.5" cy="263.6" r="3.7"/>
		</g>
	</g>
	<g>
		<path class="st5" d="M697.7,170.8c3.1,0.4,6.6,0.8,11.1,0c1.1-0.2,6.5-1.2,6.6-3c0.1-1.4-3.1-1.5-5.2-3.7
			c-5.2-5.6,2.4-19.4,0-20.7c-1.3-0.7-3.1,3.7-8.9,5.9c-0.7,0.3-7.2,2.7-13.3,0c-3.6-1.6-5.2-4.2-5.9-3.7c-0.9,0.7,3.1,4.8,3,10.3
			c-0.1,6.5-5.6,8.9-4.4,11.8C681.4,169.7,683.7,169.1,697.7,170.8z"/>
		<path class="st5" d="M662,291c1.6,5.6,3.2,13.1,3,22c-0.2,10.1-2.4,15.6,1,19c3.3,3.3,10.1,3,14,0c4.2-3.2-0.4-9.9,0-22
			c0.2-6.9,1.8-12.5,3-16"/>
		<path class="st5" d="M703,291c1.6,5.6,3.2,13.1,3,22c-0.2,10.1-2.4,15.6,1,19c3.3,3.3,10.1,3,14,0c4.2-3.2-0.4-9.9,0-22
			c0.2-6.9,1.8-12.5,3-16"/>
		<path class="st21" d="M748,233c2.5-1.1,3.7-3.3,4-4c2.3-4.9-1.1-9.2-3-17c-2.4-10.1,1.3-11.1-1-19c-3.2-10.9-13.1-18-14.4-17
			c-1,0.7,3,5.3,4.4,14.8c0.2,1.6,0.2,5.8,0,14c-0.1,6.1,0.1,12.3,0,18.4c-0.1,3.4-0.7,5.5,0.7,7.4C740.6,233.1,744.7,234.4,748,233
			z"/>
		<path class="st22" d="M657,279c1.2,0.9,2.3,0.9,6,1c12.7,0.3,25.3,0.9,38,1c22,0.2,33.6,4,36-1c0.7-1.5,0.3-3.1,0-4
			c-3.8-14.2,1.9-24.3,2-59.4c0-5.8-0.1-8.3,0-15.5c0.1-7.9,0.2-8.1,0-10.3c-0.6-7.1-1-11.8-4.4-14.8c-2.9-2.5-4.6-0.9-9.6-4.4
			c-1.3-0.9-2.7-2.1-5.2-3c-1.7-0.6-3.2-0.7-4.4-0.7c-6.2-0.2-9,2.4-14.8,3c-2.5,0.3-4.6-0.1-8.9-0.7c-7.3-1.1-9.5-2.8-14.8-2.2
			c-2.3,0.3-4,0.8-5.9,1.5c-3.6,1.3-4.6,2.3-5.2,3c-0.6,0.7-0.9,1.4-1.2,2.3c-1.3,3.8-0.4,7-0.3,9.5c0.1,3.9-2,4.6-4.4,11.1
			c0,0-0.9,1.9-1.8,5.1c-2,7.2,1.9,14.8,2.7,16.7C669.6,235.9,647,271.7,657,279z"/>
		<path class="st23" d="M666.9,172.3c-1.3-0.7-2.7,1.3-8.1,4.4c-3.5,2-4.9,2.5-6.2,3.4c-0.3,0.2-0.7,0.5-1.2,1
			c-0.8,0.8-1.6,1.9-2.4,3.8c-2.7,6.8-1.2,13.1-1.2,13.1c0.3,1.2,0.5,2.1,1,3.2c1.8,3.9,3.3,6.5,4.1,7.9c3.9,6.5,2.4,14,3,14
			c0.6,0,0.3-7.2,2.2-17c1.6-8.2,3.2-12.2,3.7-13.3c1.6-3.7,2.4-4,3.7-7.4C667.4,180.6,668.9,173.4,666.9,172.3z"/>
		<path class="st24" d="M677.2,343h-9.3c-3.2,0-5.8-2.6-5.8-5.8v-0.3c0-3.2,2.6-5.8,5.8-5.8h9.3c3.2,0,5.8,2.6,5.8,5.8v0.3
			C683,340.4,680.4,343,677.2,343z"/>
		<path class="st24" d="M718.2,343h-9.3c-3.2,0-5.8-2.6-5.8-5.8v-0.3c0-3.2,2.6-5.8,5.8-5.8h9.3c3.2,0,5.8,2.6,5.8,5.8v0.3
			C724,340.4,721.4,343,718.2,343z"/>
		<g>
			<polygon class="st19" points="701.4,230.9 701.4,232.6 690.7,232.6 690.7,230.9 689.4,230.9 689.4,232.6 689.4,233.8 
				703.1,233.8 703.1,232.6 703.1,230.9 			"/>
			<rect x="686.9" y="229.7" class="st19" width="18.7" height="5"/>
			<path class="st19" d="M715.7,251.6h-39.4c-13.4,0-24.3-10.9-24.3-24.3v0c0-13.4,10.9-24.3,24.3-24.3h39.4
				c13.4,0,24.3,10.9,24.3,24.3v0C740,240.8,729.1,251.6,715.7,251.6z"/>
			<rect x="691.1" y="225.1" class="st19" width="10.8" height="70.1"/>
			<path class="st19" d="M737.1,279.8c-4.5,5.5-15.9,7.9-35.3,6.6v-3.3C717.7,283.4,730.5,282.6,737.1,279.8
				c4.6,2.1,2.6,11.3-12,14.6c-6.6,0.3-14.5-0.1-23.2,0.8h-10.8c-8.7-0.8-16.6-0.4-23.2-0.8c-14.6-3.3-16.6-12.5-12-14.6
				c6.7,2.7,19.4,3.5,35.3,3.3v3.3c-19.4,1.3-30.7-1.1-35.3-6.6"/>
			<path class="st19" d="M701.9,295.8c0,0.3-0.3,0.6-0.6,0.6h-9.5c-0.3,0-0.6-0.3-0.6-0.6s0.3-0.6,0.6-0.6h9.5
				C701.6,295.2,701.9,295.5,701.9,295.8z"/>
			<path class="st19" d="M699.4,297.1V339c0,0.3-0.1,0.6-0.2,0.9c-0.4,1-1.3,1.8-2.5,1.8H696c-1.1,0-2-0.7-2.3-1.7
				c-0.1-0.2-0.1-0.5-0.1-0.7v-42.1c0-0.4,0.3-0.7,0.7-0.7h4.5C699.1,296.4,699.4,296.7,699.4,297.1z"/>
			<path class="st19" d="M699.8,341v6.6c0,0.8-0.7,1.5-1.5,1.5h-3.7c-0.8,0-1.5-0.7-1.5-1.5V341c0-0.5,0.2-0.9,0.5-1.1
				c0.3,1,1.2,1.7,2.3,1.7h0.7c1.2,0,2.1-0.7,2.5-1.8C699.6,340.1,699.8,340.6,699.8,341z"/>
			<path class="st20" d="M733.2,359.4c-0.2,0.6-0.5,1.2-1,1.5c-0.5,0.3-1,0.5-1.6,0.5c-0.2,0-0.4,0-0.7-0.1l-5.2-1.3l-26.7-6.8h-3
				l-26.7,6.8l-5.2,1.3c-0.2,0.1-0.5,0.1-0.7,0.1c-0.6,0-1.1-0.2-1.6-0.5c-0.5-0.4-0.9-0.9-1-1.5c-0.6-2.3,0.8-4.6,3.1-5.2l30.2-7.7
				v1.1c0,0.8,0.7,1.5,1.5,1.5h3.7c0.8,0,1.5-0.7,1.5-1.5v-1.1l30.3,7.8C732.4,354.9,733.7,357.2,733.2,359.4z"/>
			<path d="M732.1,361v6.6c0,0.8-0.6,1.4-1.4,1.4h-4.6c-0.8,0-1.4-0.6-1.4-1.4v-7.1c0-0.1,0-0.3,0.1-0.4l5.2,1.3
				c0.2,0.1,0.5,0.1,0.7,0.1C731.1,361.5,731.7,361.3,732.1,361z"/>
			<path d="M668.4,360.5v7.1c0,0.8-0.6,1.4-1.4,1.4h-4.6c-0.8,0-1.4-0.6-1.4-1.4V361c0.5,0.3,1,0.5,1.6,0.5c0.2,0,0.4,0,0.7-0.1
				l5.2-1.3C668.4,360.2,668.4,360.3,668.4,360.5z"/>
			<circle class="st19" cx="696.5" cy="234.6" r="3.7"/>
		</g>
		<path class="st17" d="M646,253"/>
		<path class="st25" d="M708,193c-10.7,8.3-28.4,7.2-35-1c-6.6-8.2,3.9-15.7,1-41c-0.9-8.3-3.5-17.2-1.4-30.4
			c0.8-4.9,1.5-8.7,4.4-12.5c7-8.9,18.7-8.2,19.2-8.1c1.6,0.1,10.6,1.1,15.5,8.1c7.7,11.1-5,22.8,2.3,40.9c2.2,5.6,2.2,5.2,3,10
			C717.8,163.7,721.1,182.9,708,193z"/>
	</g>
	<g>
		<path class="st5" d="M885.7,179.8c3.1,0.4,6.6,0.8,11.1,0c1.1-0.2,6.5-1.2,6.6-3c0.1-1.4-3.1-1.5-5.2-3.7
			c-5.2-5.6,2.4-19.4,0-20.7c-1.3-0.7-3.1,3.7-8.9,5.9c-0.7,0.3-7.2,2.7-13.3,0c-3.6-1.6-5.2-4.2-5.9-3.7c-0.9,0.7,3.1,4.8,3,10.3
			c-0.1,6.5-5.6,8.9-4.4,11.8C869.4,178.7,871.7,178.1,885.7,179.8z"/>
		<path class="st5" d="M850,300c1.6,5.6,3.2,13.1,3,22c-0.2,10.1-2.4,15.6,1,19c3.3,3.3,10.1,3,14,0c4.2-3.2-0.4-9.9,0-22
			c0.2-6.9,1.8-12.5,3-16"/>
		<path class="st5" d="M891,300c1.6,5.6,3.2,13.1,3,22c-0.2,10.1-2.4,15.6,1,19c3.3,3.3,10.1,3,14,0c4.2-3.2-0.4-9.9,0-22
			c0.2-6.9,1.8-12.5,3-16"/>
		<path class="st26" d="M882,159.9c-7.3-0.4-11.9-5.2-14-7.4c-8.5-8.8-7.6-20.4-7.4-22.9c0.3-2.9,0.8-7.9,4.4-12.5
			c7-8.9,18.7-8.2,19.2-8.1c1.3,0.1,9.9,0.9,15.5,8.1c5.4,6.9,4.4,14.9,3.7,20.7c-0.6,4.9-1.3,10.6-5.9,15.5
			C896.2,154.6,890.5,160.4,882,159.9z"/>
		<g id="XMLID_2_">
			<g>
				<path class="st5" d="M943.7,231.3c1.5,4.2,2.5,7.4,0.8,10.5c-0.1,0.2-1.5,2.6-4.4,3.7c-4.9,1.8-11.1-1.5-13.3-5.9
					c-0.5-0.9-0.6-3.1-0.7-7.4c-0.1-1.5-0.1-3.9-0.1-10.1l15.3,1.8C942,226.7,942.9,229.2,943.7,231.3z"/>
				<path class="st27" d="M941.2,223.9l-15.3-1.8c0-1,0-2.2,0-3.5c0-1.1,0-2.2,0-3.4c0-1,0-0.9,0-1.5c0.2-8.3,0.2-12.4,0-14
					c-1.5-9.6-5.7-13.6-4.4-14.8c1.9-1.7,14.3,4.5,18.5,15.5c2.5,6.7-0.4,9,0,16.5c0.1,1.4,0.3,3,0.7,4.9
					C940.9,222.6,941,223.3,941.2,223.9z"/>
			</g>
			<g>
			</g>
		</g>
		<path class="st27" d="M841,285c1.8,1.6,4.5,2.4,10,4c13.9,4,23.4,1.9,38,1c27.5-1.6,31,4,36-1c5.9-5.8,2-14.6,2-48.7
			c0-4.9,0.1-9.8,0-14.8c-0.1-4.5-0.1-8.7,0-15.5c0.1-7.9,0.2-8.1,0-10.3c-0.6-7.1-1-11.8-4.4-14.8c-2.9-2.5-4.6-0.9-9.6-4.4
			c-1.3-0.9-2.7-2.1-5.2-3c-1.7-0.6-3.2-0.7-4.4-0.7c-6.2-0.2-9,2.4-14.8,3c-2.5,0.3-4.6-0.1-8.9-0.7c-7.3-1.1-9.5-2.8-14.8-2.2
			c-2.3,0.3-4,0.8-5.9,1.5c-3.6,1.3-4.6,2.3-5.2,3c-0.6,0.7-0.9,1.4-1.2,2.3c-1.3,3.8-0.4,7-0.3,9.5c0.1,3.9-2,4.6-4.4,11.1
			c-1.5,4-2.6,6.8-3.7,14.8C840,250.4,829.6,274.9,841,285z"/>
		<path class="st27" d="M855.9,180.3c-1.3-0.7-2.7,1.3-8.1,4.4c-4.6,2.6-5.5,2.6-7.4,4.4c-2.4,2.3-3.2,5-3.7,6.6
			c-1.3,4.2-0.5,7.8,0,10.3c0.3,1.3,0.6,2.3,1,3.2c1.8,3.9,3.3,6.5,4.1,7.9c3.9,6.5,2.4,14,3,14c0.6,0,0.3-7.2,2.2-17
			c1.6-8.2,3.2-12.2,3.7-13.3c1.6-3.7,2.4-4,3.7-7.4C856.4,188.6,857.9,181.4,855.9,180.3z"/>
		<path class="st18" d="M865.2,352h-9.3c-3.2,0-5.8-2.6-5.8-5.8v-0.3c0-3.2,2.6-5.8,5.8-5.8h9.3c3.2,0,5.8,2.6,5.8,5.8v0.3
			C871,349.4,868.4,352,865.2,352z"/>
		<path class="st18" d="M906.2,352h-9.3c-3.2,0-5.8-2.6-5.8-5.8v-0.3c0-3.2,2.6-5.8,5.8-5.8h9.3c3.2,0,5.8,2.6,5.8,5.8v0.3
			C912,349.4,909.4,352,906.2,352z"/>
		<g>
			<polygon class="st19" points="889.4,239.9 889.4,241.6 878.7,241.6 878.7,239.9 877.4,239.9 877.4,241.6 877.4,242.8 
				891.1,242.8 891.1,241.6 891.1,239.9 			"/>
			<rect x="874.9" y="238.7" class="st19" width="18.7" height="5"/>
			<path class="st19" d="M903.7,260.6h-39.4c-13.4,0-24.3-10.9-24.3-24.3v0c0-13.4,10.9-24.3,24.3-24.3h39.4
				c13.4,0,24.3,10.9,24.3,24.3v0C928,249.8,917.1,260.6,903.7,260.6z"/>
			<rect x="879.1" y="234.1" class="st19" width="10.8" height="70.1"/>
			<path class="st19" d="M925.1,288.8c-4.5,5.5-15.9,7.9-35.3,6.6v-3.3C905.7,292.4,918.5,291.6,925.1,288.8
				c4.6,2.1,2.6,11.3-12,14.6c-6.6,0.3-14.5-0.1-23.2,0.8h-10.8c-8.7-0.8-16.6-0.4-23.2-0.8c-14.6-3.3-16.6-12.5-12-14.6
				c6.7,2.7,19.4,3.5,35.3,3.3v3.3c-19.4,1.3-30.7-1.1-35.3-6.6"/>
			<path class="st19" d="M889.9,304.8c0,0.3-0.3,0.6-0.6,0.6h-9.5c-0.3,0-0.6-0.3-0.6-0.6s0.3-0.6,0.6-0.6h9.5
				C889.6,304.2,889.9,304.5,889.9,304.8z"/>
			<path class="st19" d="M887.4,306.1V348c0,0.3-0.1,0.6-0.2,0.9c-0.4,1-1.3,1.8-2.5,1.8H884c-1.1,0-2-0.7-2.3-1.7
				c-0.1-0.2-0.1-0.5-0.1-0.7v-42.1c0-0.4,0.3-0.7,0.7-0.7h4.5C887.1,305.4,887.4,305.7,887.4,306.1z"/>
			<path class="st19" d="M887.8,350v6.6c0,0.8-0.7,1.5-1.5,1.5h-3.7c-0.8,0-1.5-0.7-1.5-1.5V350c0-0.5,0.2-0.9,0.5-1.1
				c0.3,1,1.2,1.7,2.3,1.7h0.7c1.2,0,2.1-0.7,2.5-1.8C887.6,349.1,887.8,349.6,887.8,350z"/>
			<path class="st20" d="M921.2,368.4c-0.2,0.6-0.5,1.2-1,1.5c-0.5,0.3-1,0.5-1.6,0.5c-0.2,0-0.4,0-0.7-0.1l-5.2-1.3l-26.7-6.8h-3
				l-26.7,6.8l-5.2,1.3c-0.2,0.1-0.5,0.1-0.7,0.1c-0.6,0-1.1-0.2-1.6-0.5c-0.5-0.4-0.9-0.9-1-1.5c-0.6-2.3,0.8-4.6,3.1-5.2l30.2-7.7
				v1.1c0,0.8,0.7,1.5,1.5,1.5h3.7c0.8,0,1.5-0.7,1.5-1.5v-1.1l30.3,7.8C920.4,363.9,921.7,366.2,921.2,368.4z"/>
			<path d="M920.1,370v6.6c0,0.8-0.6,1.4-1.4,1.4h-4.6c-0.8,0-1.4-0.6-1.4-1.4v-7.1c0-0.1,0-0.3,0.1-0.4l5.2,1.3
				c0.2,0.1,0.5,0.1,0.7,0.1C919.1,370.5,919.7,370.3,920.1,370z"/>
			<path d="M856.4,369.5v7.1c0,0.8-0.6,1.4-1.4,1.4h-4.6c-0.8,0-1.4-0.6-1.4-1.4V370c0.5,0.3,1,0.5,1.6,0.5c0.2,0,0.4,0,0.7-0.1
				l5.2-1.3C856.4,369.2,856.4,369.3,856.4,369.5z"/>
			<circle class="st19" cx="884.5" cy="243.6" r="3.7"/>
		</g>
	</g>
	<line class="st3" x1="942" y1="223" x2="927" y2="226"/>
	<g>
		<path class="st3" d="M320,147"/>
	</g>
	<g>
		<g>
			<path class="st28" d="M994.5,505.5c2,0.1,4,0.2,6,0.3"/>
			<path class="st29" d="M1012.6,506c110.7-0.8,117.4-78.1,60.9-89.5c-70.3-14.2-291.6,10-478-13c-169.9-21-60.3-205.5-162.1-230"/>
			<path class="st28" d="M427.4,172.3c-1.9-0.3-3.9-0.6-5.9-0.8"/>
		</g>
	</g>
	<g>
		<g>
			<path class="st28" d="M1063.5,178.5c2,0.4,4,0.8,5.9,1.1"/>
			<path class="st30" d="M1081.4,182.2c78.1,18.2,37.7,41.3,90.1,130.3c40.1,68.1,191.6,243.1-163.9,241.1"/>
			<path class="st28" d="M1001.5,553.6c-2,0-4,0-6-0.1"/>
		</g>
	</g>
	<rect x="246" y="127" class="st31" width="30" height="3"/>
	<rect x="243" y="132" class="st32" width="33" height="3"/>
	<rect x="241" y="138" class="st33" width="17" height="2"/>
	<rect x="259" y="138" class="st33" width="17" height="2"/>
	<rect x="268" y="150" class="st34" width="8" height="3"/>
	<rect x="259" y="150" class="st34" width="8" height="3"/>
	<rect x="250" y="150" class="st34" width="8" height="3"/>
	<rect x="241" y="150" class="st34" width="8" height="3"/>
	<rect x="257" y="156" class="st35" width="19" height="3"/>
	<rect x="241" y="156" class="st35" width="15" height="3"/>
	<rect x="259" y="169" class="st36" width="17" height="5"/>
	<rect x="714" y="136" class="st33" width="14" height="2"/>
	<rect x="720" y="148" class="st34" width="8" height="3"/>
	<rect x="719" y="154" class="st35" width="7" height="3"/>
	<rect x="641" y="123" transform="matrix(-1 -1.224647e-16 1.224647e-16 -1 1309 249)" class="st31" width="27" height="3"/>
	<rect x="641" y="128" transform="matrix(-1 -1.224647e-16 1.224647e-16 -1 1310 259)" class="st32" width="28" height="3"/>
	<rect x="659" y="134" transform="matrix(-1 -1.224647e-16 1.224647e-16 -1 1327 270)" class="st33" width="9" height="2"/>
	<rect x="641" y="134" transform="matrix(-1 -1.224647e-16 1.224647e-16 -1 1299 270)" class="st33" width="17" height="2"/>
	<rect x="641" y="146" transform="matrix(-1 -1.224647e-16 1.224647e-16 -1 1290 295)" class="st34" width="8" height="3"/>
	<rect x="650" y="146" transform="matrix(-1 -1.224647e-16 1.224647e-16 -1 1308 295)" class="st34" width="8" height="3"/>
	<rect x="641" y="152" transform="matrix(-1 -1.224647e-16 1.224647e-16 -1 1301 307)" class="st35" width="19" height="3"/>
	<rect x="641" y="159" transform="matrix(-1 -1.224647e-16 1.224647e-16 -1 1295 321)" class="st32" width="13" height="3"/>
	<rect x="173" y="127" class="st32" width="23" height="39"/>
	<rect x="738" y="123" class="st37" width="10" height="7"/>
	<rect x="839" y="130" class="st33" width="14" height="8"/>
	<rect x="908" y="130" class="st33" width="36" height="8"/>
	<rect x="839" y="144" class="st33" width="14" height="33"/>
	<rect x="934" y="174" class="st33" width="10" height="4"/>
	<g id="XMLID_3_">
		<g>
			<polygon class="st16" points="421.7,124.9 399.3,144.4 329.6,141.6 			"/>
			<polygon class="st38" points="398,148.8 413.5,169.8 400.2,168 400,168 			"/>
			<polygon class="st16" points="400,168 402.3,190.7 329.6,141.6 398,148.8 			"/>
			<polygon class="st39" points="399.3,144.4 413.5,169.8 398,148.8 329.6,141.6 398.3,145.6 			"/>
			<polygon class="st16" points="399.3,144.4 398.3,145.6 329.6,141.6 			"/>
		</g>
		<g>
		</g>
	</g>
	<g id="XMLID_4_">
		<g>
			<polygon class="st16" points="1063.7,133.9 1041.3,153.4 971.6,150.6 			"/>
			<polygon class="st38" points="1040.1,157.8 1055.5,178.8 1042.2,177 1042,177 			"/>
			<polygon class="st16" points="1042,177 1044.3,199.7 971.6,150.6 1040.1,157.8 			"/>
			<polygon class="st39" points="1041.3,153.4 1055.5,178.8 1040.1,157.8 971.6,150.6 1040.3,154.6 			"/>
			<polygon class="st16" points="1041.3,153.4 1040.3,154.6 971.6,150.6 			"/>
		</g>
		<g>
		</g>
	</g>
</g>
</svg>
