<?xml version="1.0" encoding="utf-8"?>
<!-- Generator: Adobe Illustrator 22.1.0, SVG Export Plug-In . SVG Version: 6.00 Build 0)  -->
<svg version="1.1" id="Layer_1" xmlns="http://www.w3.org/2000/svg" xmlns:xlink="http://www.w3.org/1999/xlink" x="0px" y="0px"
	 viewBox="0 0 200 200" style="enable-background:new 0 0 200 200;" xml:space="preserve">
<style type="text/css">
	.st0{fill:#CCCCCC;stroke:#333333;stroke-miterlimit:10;}
	.st1{font-family:'Verdana';}
	.st2{font-size:21px;}
	.st3{font-size:15px;}
	.st4{fill:none;stroke:#333333;stroke-width:6.3669;stroke-linecap:round;stroke-miterlimit:10;}
	.st5{fill:none;stroke:#333333;stroke-width:6.3101;stroke-miterlimit:10;}
	.st6{fill:none;stroke:#333333;stroke-width:5.6509;stroke-miterlimit:10;}
	.st7{stroke:#333333;stroke-miterlimit:10;}
	.st8{fill:#84CDE6;stroke:#333333;stroke-miterlimit:10;}
	.st9{fill:none;stroke:#333333;stroke-width:3.6058;stroke-linecap:round;stroke-miterlimit:10;}
</style>
<text transform="matrix(1 0 0 1 59.3461 51.2052)" class="st0 st1 st2">student</text>
<text transform="matrix(1 0 0 1 61.4003 163.0732)" class="st0 st1 st3">COURSES</text>
<circle class="st4" cx="100.5" cy="99.5" r="80.5"/>
<path class="st5" d="M99.6,142.5L99.6,142.5c-17.7,0-32.2-14.5-32.2-32.2V93.2C67.4,75.4,81.9,61,99.6,61l0,0
	c17.7,0,32.2,14.5,32.2,32.2v17.2C131.8,128,117.3,142.5,99.6,142.5z"/>
<path class="st6" d="M117.4,80.1h-16.8c-1,0-1.9-0.8-1.9-1.9l0,0c0-1,0.8-1.9,1.9-1.9h16.8c1,0,1.9,0.8,1.9,1.9l0,0
	C119.3,79.2,118.5,80.1,117.4,80.1z"/>
<path class="st6" d="M117.4,93.3h-16.8c-1,0-1.9-0.8-1.9-1.9l0,0c0-1,0.8-1.9,1.9-1.9h16.8c1,0,1.9,0.8,1.9,1.9l0,0
	C119.3,92.4,118.5,93.3,117.4,93.3z"/>
<path class="st6" d="M117.4,107.8h-16.8c-1,0-1.9-0.8-1.9-1.9l0,0c0-1,0.8-1.9,1.9-1.9h16.8c1,0,1.9,0.8,1.9,1.9l0,0
	C119.3,106.9,118.5,107.8,117.4,107.8z"/>
<circle class="st7" cx="75.4" cy="87.3" r="2.9"/>
<circle class="st7" cx="75.3" cy="102.3" r="2.9"/>
<circle class="st7" cx="75.4" cy="117" r="2.9"/>
<path class="st8" d="M74.8,89.3h-11c-1.1,0-2-0.9-2-2l0,0c0-1.1,0.9-2,2-2h10.9c1.1,0,2,0.9,2,2l0,0C76.7,88.4,75.9,89.3,74.8,89.3z
	"/>
<path class="st8" d="M74.8,104.1h-11c-1.1,0-2-0.9-2-2l0,0c0-1.1,0.9-2,2-2h10.9c1.1,0,2,0.9,2,2l0,0
	C76.7,103.2,75.9,104.1,74.8,104.1z"/>
<path class="st8" d="M74.8,118.9h-11c-1.1,0-2-0.9-2-2l0,0c0-1.1,0.9-2,2-2h10.9c1.1,0,2,0.9,2,2l0,0
	C76.7,118.1,75.9,118.9,74.8,118.9z"/>
<g>
	<path class="st8" d="M94.5,128.5c2.8-1.6,19.5-11.9,22.3-13.4l0,0c0.8-0.4,1.7-0.1,2.1,0.6c0.3,0.6,0.2,1.4-0.3,1.9
		c-2.4,2.3-4.9,4.5-7.6,6.5c-2.6,2-5.4,3.9-8.2,5.7c-1.4,0.9-2.8,1.7-4.3,2.6c-0.7,0.4-1.4,0.8-2.2,1.2l-1.1,0.6
		c-0.3,0.1-0.7,0.4-1.7,0.5c-0.5,0.1-1.1,0-1.8-0.2c-0.6-0.2-1.2-0.7-1.5-1c-0.3-0.4-0.5-0.6-0.6-0.8l-0.2-0.3
		c-0.1-0.2-0.2-0.4-0.3-0.5c-0.2-0.4-0.4-0.7-0.5-1.1c-0.3-0.7-0.7-1.5-0.9-2.3c-0.6-1.6-1-3.2-1.3-4.9c-0.1-0.9,0.5-1.7,1.5-1.9
		c0.6-0.2,1.1,0,1.4,0.3c1.4,1.1,2.5,2.4,3.5,3.7c0.5,0.7,1,1.3,1.4,2c0.2,0.3,0.4,0.7,0.7,1"/>
	<path class="st8" d="M94.6,128.3"/>
</g>
<g>
	<line class="st9" x1="85.6" y1="78.1" x2="88.4" y2="80.8"/>
	<line class="st9" x1="93.3" y1="74.5" x2="88.4" y2="80.8"/>
</g>
<g>
	<line class="st9" x1="85.2" y1="91.8" x2="88" y2="94.4"/>
	<line class="st9" x1="92.9" y1="88.2" x2="88" y2="94.4"/>
</g>
<g>
	<line class="st9" x1="85.2" y1="106.1" x2="88" y2="108.7"/>
	<line class="st9" x1="92.9" y1="102.4" x2="88" y2="108.7"/>
</g>
</svg>
